<?xml version="1.0" standalone="no"?>
<!DOCTYPE svg PUBLIC "-//W3C//DTD SVG 20010904//EN"
 "http://www.w3.org/TR/2001/REC-SVG-20010904/DTD/svg10.dtd">
<svg version="1.0" xmlns="http://www.w3.org/2000/svg"
 width="394.000000pt" height="394.000000pt" viewBox="0 0 394.000000 394.000000"
 preserveAspectRatio="xMidYMid meet">
<metadata>
Created by potrace 1.14, written by Peter Selinger 2001-2017
</metadata>
<g transform="translate(0.000000,394.000000) scale(0.100000,-0.100000)"
fill="#000000" stroke="none">
<path d="M595 3921 c-110 -28 -163 -52 -258 -114 -120 -79 -229 -216 -285
-357 -54 -137 -52 -79 -49 -1505 3 -1434 -1 -1331 56 -1474 55 -137 179 -280
311 -359 80 -48 123 -66 225 -92 66 -17 144 -18 1355 -19 835 -1 1307 3 1348
9 276 45 509 242 601 510 13 36 26 85 29 110 4 25 7 635 7 1355 0 1415 2 1348
-53 1480 -104 246 -326 423 -584 465 -41 6 -513 10 -1348 9 -1197 -1 -1290 -2
-1355 -18z"/>
</g>
</svg>
